<svg xmlns="http://www.w3.org/2000/svg" version="1.1" xmlns:xlink="http://www.w3.org/1999/xlink" xmlns:svgjs="http://svgjs.dev/svgjs" width="1000" height="234" viewBox="0 0 1000 234"><g transform="matrix(1,0,0,1,-0.6060606060606233,-0.4404067963934182)"><svg viewBox="0 0 396 93" data-background-color="#28353b" preserveAspectRatio="xMidYMid meet" height="234" width="1000" xmlns="http://www.w3.org/2000/svg" xmlns:xlink="http://www.w3.org/1999/xlink"><g id="tight-bounds" transform="matrix(1,0,0,1,0.2400000000000091,0.17503347036148398)"><svg viewBox="0 0 395.52 92.64993305927703" height="92.64993305927703" width="395.52"><g><svg viewBox="0 0 395.52 92.64993305927703" height="92.64993305927703" width="395.52"><g><svg viewBox="0 0 641.5326013685667 150.27799497406343" height="92.64993305927703" width="395.52"><g><rect width="9.806240718995552" height="130.4874051873199" x="210.53557342706978" y="9.89529489337177" fill="#ffffff" opacity="1" stroke-width="0" stroke="transparent" fill-opacity="1" class="rect-uu-0" data-fill-palette-color="primary" rx="1%" id="uu-0" data-palette-color="#ffffff"></rect></g><g transform="matrix(1,0,0,1,246.01260136856678,20.769245325648427)"><svg viewBox="0 0 395.52 108.73950432276658" height="108.73950432276658" width="395.52"><g><svg viewBox="0 0 395.52 108.73950432276658" height="108.73950432276658" width="395.52"><g><svg viewBox="0 0 395.52 108.73950432276658" height="108.73950432276658" width="395.52"><g transform="matrix(1,0,0,1,0,0)"><svg width="395.52" viewBox="10.8 -41.6 173.48999999999998 47.7" height="108.73950432276658" data-palette-color="#ffffff"><path d="M14.95-30.3L14.95-30.3Q12.95-30.3 11.88-31.43 10.8-32.55 10.8-34.15L10.8-34.15Q10.8-34.55 10.93-35.1 11.05-35.65 11.25-36.05L11.25-36.05Q11.9-35.75 13.18-35.63 14.45-35.5 16.15-35.5L16.15-35.5Q18.7-35.5 21.93-35.73 25.15-35.95 28.1-36.2 31.05-36.45 33.3-36.68 35.55-36.9 36.2-36.9L36.2-36.9Q38.05-36.9 38.88-35.52 39.7-34.15 40.1-31.85L40.1-31.85Q38.8-31.95 37.52-32.02 36.25-32.1 35.35-32.1L35.35-32.1Q33.75-32.1 32.13-32 30.5-31.9 28.85-31.7L28.85-31.7Q28.15-30.25 27.3-28.28 26.45-26.3 25.63-24.15 24.8-22 24.05-19.88 23.3-17.75 22.75-16.05L22.75-16.05Q21.65-12.75 20.83-9.95 20-7.15 19.38-4.73 18.75-2.3 18.3-0.1 17.85 2.1 17.5 4.2L17.5 4.2Q14.15 3.7 11.9 0L11.9 0Q12.3-1.55 12.88-3.38 13.45-5.2 14.23-7.53 15-9.85 16.05-12.8 17.1-15.75 18.45-19.5L18.45-19.5Q18.95-20.9 19.5-22.43 20.05-23.95 20.58-25.45 21.1-26.95 21.53-28.35 21.95-29.75 22.25-30.9L22.25-30.9Q20.15-30.65 18.28-30.48 16.4-30.3 14.95-30.3ZM42.2-1.1L42.2-1.1Q41.25-1.9 40.92-3.1 40.6-4.3 40.6-5.15L40.6-5.15Q40.6-6.2 40.85-6.95L40.85-6.95Q40.65-6.95 39.95-6.15 39.25-5.35 38.42-4.25 37.6-3.15 36.8-2.1 36-1.05 35.6-0.55L35.6-0.55Q34.95 0.15 34.37 0.55 33.8 0.95 33.45 1L33.45 1Q32.65 0.95 31.77 0.68 30.9 0.4 30.12-0.1 29.35-0.6 28.77-1.3 28.2-2 28-2.9L28-2.9Q28-4.3 28.07-5.2 28.15-6.1 28.4-7.15L28.4-7.15Q28.85-9.05 29.72-11.45 30.6-13.85 31.75-16.18 32.9-18.5 34.32-20.53 35.75-22.55 37.35-23.7L37.35-23.7Q37.8-23.7 38.4-23.63 39-23.55 39.62-23.35 40.25-23.15 40.82-22.88 41.4-22.6 41.8-22.15L41.8-22.15Q41.35-21.65 39.52-18.8 37.7-15.95 35.45-10.6L35.45-10.6Q35.2-10.05 34.85-9 34.5-7.95 34.15-6.8 33.8-5.65 33.57-4.55 33.35-3.45 33.35-2.8L33.35-2.8Q33.35-2.4 33.47-2.2 33.6-2 33.7-1.9L33.7-1.9Q34.45-2.2 35.6-3.55 36.75-4.9 38.8-7.7L38.8-7.7Q39.3-8.4 39.97-9.3 40.65-10.2 41.35-11.23 42.05-12.25 42.67-13.35 43.3-14.45 43.7-15.55L43.7-15.55Q43.9-16.15 44.22-16.98 44.55-17.8 45.02-18.7 45.5-19.6 46.12-20.53 46.75-21.45 47.6-22.25L47.6-22.25Q48.25-22.25 49-22.1 49.75-21.95 50.42-21.73 51.1-21.5 51.6-21.23 52.1-20.95 52.35-20.65L52.35-20.65Q51.45-18.45 50.35-16.3 49.25-14.15 48.3-12.08 47.35-10 46.7-7.95 46.05-5.9 46.05-3.95L46.05-3.95Q46.05-2.9 46.22-2.13 46.4-1.35 46.6-0.83 46.8-0.3 46.97 0.05 47.15 0.4 47.15 0.65L47.15 0.65Q47.15 0.7 47.05 0.8L47.05 0.8Q47 0.85 46.95 0.85L46.95 0.85Q46.6 0.85 46.05 0.7 45.5 0.55 44.82 0.28 44.15 0 43.47-0.35 42.8-0.7 42.2-1.1ZM82-15.35L82-15.35Q81.2-15.3 80.05-14.33 78.9-13.35 77.57-11.83 76.25-10.3 74.82-8.45 73.4-6.6 72.07-4.78 70.75-2.95 69.59-1.35 68.45 0.25 67.65 1.2L67.65 1.2Q66.55 0.75 65.75-0.13 64.95-1 64.59-2.3L64.59-2.3Q64.84-3.85 65.3-5.53 65.75-7.2 66.47-9 67.2-10.8 68.27-12.78 69.34-14.75 70.9-16.95L70.9-16.95Q70.15-16.9 68.84-15.88 67.55-14.85 66.05-13.23 64.55-11.6 62.95-9.58 61.35-7.55 59.95-5.6L59.95-5.6Q58.1-3 56.87-1.05 55.65 0.9 55.1 1.25L55.1 1.25Q53.8 0.3 53.3-0.8 52.8-1.9 52.55-3.25L52.55-3.25Q52.6-4.45 52.92-6.25 53.25-8.05 53.85-9.95L53.85-9.95Q55-13.6 56.82-17.2 58.65-20.8 60.35-23.8L60.35-23.8Q61.75-23.5 62.87-22.85 64-22.2 65.25-20.95L65.25-20.95Q64.75-19.4 63.7-17.68 62.65-15.95 61.5-14.05 60.35-12.15 59.4-10.15 58.45-8.15 58.15-6.1L58.15-6.1Q59.55-8.1 61.47-10.7 63.4-13.3 65.42-15.6 67.45-17.9 69.45-19.5 71.45-21.1 73.05-21.1L73.05-21.1Q73.65-21.1 74.34-20.9 75.05-20.7 75.65-20.4 76.25-20.1 76.65-19.83 77.05-19.55 77.09-19.4L77.09-19.4Q76.84-18.4 75.92-16.68 75-14.95 73.95-13.05 72.9-11.15 72-9.38 71.09-7.6 70.95-6.55L70.95-6.55Q73.4-9.9 75.55-12.63 77.7-15.35 79.59-17.3 81.5-19.25 83.12-20.3 84.75-21.35 86.2-21.35L86.2-21.35Q87.2-21.35 88.07-20.83 88.95-20.3 89.3-19.3L89.3-19.3Q88.84-17.8 87.82-15.7 86.8-13.6 85.75-11.28 84.7-8.95 83.87-6.7 83.05-4.45 83.05-2.65L83.05-2.65Q83.05-1.6 83.34-1.28 83.65-0.95 84.2-0.95L84.2-0.95Q84.8-0.95 85.32-1.18 85.84-1.4 86.09-1.4L86.09-1.4Q86.4-1.2 86.45-0.9 86.5-0.6 86.5-0.35L86.5-0.35Q85.5 0.45 84.45 0.98 83.4 1.5 82.09 1.5L82.09 1.5Q80.9 1.5 80.12 1.1 79.34 0.7 78.84 0 78.34-0.7 78.15-1.6 77.95-2.5 77.95-3.55L77.95-3.55Q77.95-5.25 78.4-6.93 78.84-8.6 79.47-10.13 80.09-11.65 80.8-12.98 81.5-14.3 82-15.35ZM108.59-20.2L108.59-20.2Q109.09-20.2 109.77-20.03 110.44-19.85 110.99-19.58 111.54-19.3 111.92-19 112.29-18.7 112.29-18.45L112.29-18.45Q111.29-16.35 110.44-14.23 109.59-12.1 108.99-10.15 108.39-8.2 108.07-6.5 107.74-4.8 107.74-3.55L107.74-3.55Q107.74-2.15 108.04-1.23 108.34-0.3 109.04 0.1L109.04 0.1Q108.44 0.5 107.49 0.75 106.54 1 105.79 1L105.79 1Q103.09 1 103.09-2.7L103.09-2.7Q103.09-5.55 104.99-10.5L104.99-10.5Q103.99-8.2 102.69-6.18 101.39-4.15 100.04-2.6 98.69-1.05 97.32-0.08 95.94 0.9 94.79 1.1L94.79 1.1Q92.94 1 91.79-0.68 90.64-2.35 90.64-4.95L90.64-4.95Q90.64-7.75 91.84-10.85 93.04-13.95 94.92-16.6 96.79-19.25 98.99-21.03 101.19-22.8 103.24-22.9L103.24-22.9Q103.74-22.75 104.37-22.3 104.99-21.85 105.57-21.25 106.14-20.65 106.54-20.03 106.94-19.4 106.99-18.95L106.99-18.95Q104.99-18.65 102.87-17 100.74-15.35 99.02-13.03 97.29-10.7 96.19-8.05 95.09-5.4 95.09-3.1L95.09-3.1Q95.09-2.15 95.79-1.9L95.79-1.9Q97.24-2.2 99.14-4.38 101.04-6.55 103.74-11.1L103.74-11.1Q104.24-12 104.87-13.1 105.49-14.2 106.14-15.4 106.79-16.6 107.42-17.82 108.04-19.05 108.59-20.2ZM114.94-4.7L114.94-4.7Q114.94-6.5 115.87-9.7 116.79-12.9 118.29-16.7 119.79-20.5 121.69-24.55 123.59-28.6 125.52-32.1 127.44-35.6 129.22-38.15 130.99-40.7 132.24-41.6L132.24-41.6Q132.94-41.55 133.77-41 134.59-40.45 135.29-39.68 135.99-38.9 136.47-38.05 136.94-37.2 136.94-36.5L136.94-36.5Q134.69-34.7 132.37-31.88 130.04-29.05 127.94-25.68 125.84-22.3 124.07-18.53 122.29-14.75 121.09-11.1L121.09-11.1Q122.69-13.85 124.44-16.1 126.19-18.35 127.94-19.95 129.69-21.55 131.37-22.43 133.04-23.3 134.54-23.35L134.54-23.35Q136.74-21.75 136.74-19.1L136.74-19.1Q136.74-17.5 136.09-15.88 135.44-14.25 134.37-12.88 133.29-11.5 131.92-10.53 130.54-9.55 129.04-9.25L129.04-9.25Q129.54-7.5 130.31-5.7 131.09-3.9 132.17-2.2 133.24-0.5 134.62 0.95 135.99 2.4 137.74 3.4L137.74 3.4Q137.49 3.9 136.99 4.4 136.49 4.9 135.79 5.28 135.09 5.65 134.27 5.88 133.44 6.1 132.64 6.1L132.64 6.1Q131.29 6.1 130.12 4.75 128.94 3.4 127.99 0.85L127.99 0.85Q127.24-1.2 126.54-4.05 125.84-6.9 125.29-10L125.29-10Q125.99-10.45 127.04-11.33 128.09-12.2 129.24-13.35L129.24-13.35Q133.64-17.6 133.64-20.7L133.64-20.7Q133.64-21.1 133.09-21.1L133.09-21.1Q132.09-21.05 130.74-20.15 129.39-19.25 127.87-17.65 126.34-16.05 124.77-13.9 123.19-11.75 121.74-9.25L121.74-9.25Q121.14-8.25 120.64-6.95 120.14-5.65 119.77-4.28 119.39-2.9 119.19-1.55 118.99-0.2 118.99 0.95L118.99 0.95Q118.99 1.65 119.14 2.1L119.14 2.1Q117.59 1.95 117.24 1.3L117.24 1.3Q116.84 0.7 116.57 0.33 116.29-0.05 115.99-0.3L115.99-0.3Q115.54-0.65 115.24-1.8 114.94-2.95 114.94-4.7ZM145.34 1.75L145.34 1.75Q142.49 1.45 140.79-0.75 139.09-2.95 139.09-6.35L139.09-6.35Q139.09-8.35 139.69-10.5 140.29-12.65 141.39-14.68 142.49-16.7 143.99-18.5 145.49-20.3 147.24-21.6L147.24-21.6Q149.99-23.65 152.39-23.65L152.39-23.65Q153.99-22.8 155.54-20.1L155.54-20.1Q155.79-20.1 155.99-20.13 156.19-20.15 156.44-20.15L156.44-20.15Q159.09-20.15 159.09-15.45L159.09-15.45Q159.09-12.3 158.06-9.47 157.04-6.65 155.21-4.35 153.39-2.05 150.86-0.48 148.34 1.1 145.34 1.75ZM147.89-14L147.89-14Q147.04-12.85 146.29-11.5 145.54-10.15 144.99-8.78 144.44-7.4 144.14-6.13 143.84-4.85 143.84-3.85L143.84-3.85Q143.84-2.65 144.24-1.55 144.64-0.45 145.14-0.3L145.14-0.3Q147.39-0.8 149.26-2.18 151.14-3.55 152.51-5.6 153.89-7.65 154.66-10.25 155.44-12.85 155.44-15.8L155.44-15.8Q155.44-17.1 155.29-17.85 155.14-18.6 154.79-19.15L154.79-19.15Q152.59-18.5 150.86-17.05 149.14-15.6 147.89-14ZM163.89-17.7L163.89-17.7Q163.89-18.6 164.01-19.4 164.14-20.2 164.54-20.78 164.94-21.35 165.64-21.68 166.34-22 167.49-22L167.49-22Q168.19-22 169.06-21.85 169.94-21.7 170.34-21.3L170.34-21.3Q170.14-20.45 170.01-19.8 169.89-19.15 169.81-18.38 169.74-17.6 169.69-16.53 169.64-15.45 169.59-13.75L169.59-13.75Q169.49-10.35 169.26-7.68 169.04-5 168.24-2.35L168.24-2.35Q168.24-2.15 168.39-2.15L168.39-2.15Q169.14-2.7 170.09-3.75 171.04-4.8 172.09-6.13 173.14-7.45 174.19-8.95 175.24-10.45 176.14-11.9L176.14-11.9Q177.34-14 178.79-17.15 180.24-20.3 181.19-23.9L181.19-23.9Q181.49-23.9 181.96-23.78 182.44-23.65 182.91-23.48 183.39-23.3 183.76-23.1 184.14-22.9 184.29-22.75L184.29-22.75Q184.19-20.6 183.26-18.35 182.34-16.1 181.04-14 179.74-11.9 178.29-10.05 176.84-8.2 175.64-6.85L175.64-6.85Q173.24-4.05 170.81-1.85 168.39 0.35 165.04 2.4L165.04 2.4Q163.74 1.9 162.99 1.07 162.24 0.25 162.24-0.65L162.24-0.65Q162.24-1.25 162.51-2.02 162.79-2.8 163.14-4.03 163.49-5.25 163.76-7.1 164.04-8.95 164.04-11.8L164.04-11.8Q164.04-13.45 163.96-15.13 163.89-16.8 163.89-17.7Z" opacity="1" transform="matrix(1,0,0,1,0,0)" fill="#ffffff" class="undefined-text-0" data-fill-palette-color="primary" id="text-0"></path></svg></g></svg></g></svg></g></svg></g><g><svg viewBox="0 0 184.86478620456833 150.27799497406343" height="150.27799497406343" width="184.86478620456833"><g><svg xmlns="http://www.w3.org/2000/svg" xmlns:xlink="http://www.w3.org/1999/xlink" version="1.1" x="0" y="0" viewBox="6.67074567100769 14.509837495441754 88.21563481183142 71.71116250455825" enable-background="new 0 0 100 100" xml:space="preserve" height="150.27799497406343" width="184.86478620456833" class="icon-icon-0" data-fill-palette-color="accent" id="icon-0"><g fill="#2663eb" data-fill-palette-color="accent"><path fill="#2663eb" d="M67.539 22.815H20.016c-1.04 0-1.884-0.844-1.884-1.885 0-1.041 0.844-1.885 1.884-1.885h47.523c1.04 0 1.885 0.844 1.885 1.885C69.424 21.972 68.579 22.815 67.539 22.815z" data-fill-palette-color="accent"></path></g><g fill="#2663eb" data-fill-palette-color="accent"><path fill="#2663eb" d="M38.493 34.586H20.016c-1.04 0-1.884-0.844-1.884-1.885 0-1.042 0.844-1.886 1.884-1.886h18.477c1.042 0 1.885 0.844 1.885 1.886C40.378 33.742 39.534 34.586 38.493 34.586z" data-fill-palette-color="accent"></path></g><g fill="#2663eb" data-fill-palette-color="accent"><path fill="#2663eb" d="M54.605 58.169h-34.59c-1.04 0-1.884-0.843-1.884-1.885 0-1.04 0.844-1.885 1.884-1.885h34.59c1.042 0 1.887 0.845 1.887 1.885C56.492 57.326 55.647 58.169 54.605 58.169z" data-fill-palette-color="accent"></path></g><g fill="#2663eb" data-fill-palette-color="accent"><path fill="#2663eb" d="M83.118 58.169H63.503c-1.04 0-1.884-0.843-1.884-1.885 0-1.04 0.844-1.885 1.884-1.885h19.615c1.041 0 1.885 0.845 1.885 1.885C85.003 57.326 84.159 58.169 83.118 58.169z" data-fill-palette-color="accent"></path></g><g fill="#2663eb" data-fill-palette-color="accent"><path fill="#2663eb" d="M82.701 46.36H20.016c-1.04 0-1.884-0.844-1.884-1.885 0-1.042 0.844-1.884 1.884-1.884h62.686c1.041 0 1.886 0.843 1.886 1.884C84.587 45.517 83.742 46.36 82.701 46.36z" data-fill-palette-color="accent"></path></g><g fill="#2663eb" data-fill-palette-color="accent"><path fill="#2663eb" d="M12.909 27.367c-0.496 0-0.991-0.194-1.361-0.582l-4.355-4.552c-0.694-0.726-0.697-1.87-0.005-2.6l4.297-4.535c0.717-0.756 1.91-0.787 2.666-0.071 0.754 0.716 0.788 1.909 0.072 2.665l-3.064 3.232 3.115 3.254c0.718 0.753 0.691 1.946-0.06 2.666C13.847 27.193 13.378 27.367 12.909 27.367z" data-fill-palette-color="accent"></path></g><g fill="#2663eb" data-fill-palette-color="accent"><path fill="#2663eb" d="M12.909 74.438c-0.496 0-0.991-0.193-1.361-0.581l-4.355-4.552c-0.694-0.729-0.697-1.872-0.005-2.602l4.297-4.531c0.718-0.755 1.91-0.787 2.666-0.071 0.754 0.717 0.787 1.907 0.072 2.663l-3.064 3.23 3.115 3.254c0.718 0.754 0.691 1.946-0.06 2.664C13.847 74.264 13.378 74.438 12.909 74.438z" data-fill-palette-color="accent"></path></g><g fill="#2663eb" data-fill-palette-color="accent"><path fill="#2663eb" d="M71.189 86.221c-0.466 0-0.933-0.172-1.297-0.518-0.756-0.715-0.787-1.909-0.071-2.665l3.063-3.229-3.113-3.258c-0.721-0.752-0.693-1.944 0.06-2.665 0.752-0.719 1.944-0.692 2.665 0.061l4.354 4.555c0.694 0.726 0.696 1.869 0.006 2.599l-4.299 4.534C72.187 86.022 71.688 86.221 71.189 86.221z" data-fill-palette-color="accent"></path></g><g fill="#2663eb" data-fill-palette-color="accent"><path fill="#2663eb" d="M88.704 62.324c-0.466 0-0.932-0.171-1.297-0.517-0.756-0.716-0.788-1.909-0.072-2.665l3.063-3.232-3.112-3.253c-0.72-0.752-0.692-1.945 0.059-2.666 0.751-0.718 1.945-0.693 2.665 0.06l4.354 4.551c0.694 0.725 0.697 1.869 0.006 2.599l-4.297 4.534C89.702 62.128 89.203 62.324 88.704 62.324z" data-fill-palette-color="accent"></path></g><g fill="#2663eb" data-fill-palette-color="accent"><path fill="#2663eb" d="M44.114 69.901H20.016c-1.04 0-1.884-0.842-1.884-1.885 0-1.04 0.844-1.884 1.884-1.884h24.098c1.041 0 1.885 0.844 1.885 1.884C45.999 69.06 45.154 69.901 44.114 69.901z" data-fill-palette-color="accent"></path></g><g fill="#2663eb" data-fill-palette-color="accent"><path fill="#2663eb" d="M82.701 69.895H52.978c-1.041 0-1.885-0.844-1.885-1.884 0-1.044 0.844-1.886 1.885-1.886h29.724c1.041 0 1.886 0.842 1.886 1.886C84.587 69.051 83.742 69.895 82.701 69.895z" data-fill-palette-color="accent"></path></g><g fill="#2663eb" data-fill-palette-color="accent"><path fill="#2663eb" d="M65.816 81.679H20.016c-1.04 0-1.884-0.845-1.884-1.886 0-1.042 0.844-1.886 1.884-1.886h45.801c1.042 0 1.886 0.844 1.886 1.886C67.702 80.834 66.858 81.679 65.816 81.679z" data-fill-palette-color="accent"></path></g></svg></g></svg></g></svg></g></svg></g><defs></defs></svg><rect width="395.52" height="92.64993305927703" fill="none" stroke="none" visibility="hidden"></rect></g></svg></g></svg>